<svg xmlns="http://www.w3.org/2000/svg" width="57" height="43" viewBox="0 0 57 43">
  <path fill="#FFFFFF" fill-rule="evenodd" d="M0.1068,2.39197945 C0.1068,0.955945606 0.870539029,0.237939453 2.39804,0.237939453 C3.92554097,0.237939453 4.68928,0.955945606 4.68928,2.39197945 C4.68928,3.8280133 3.92554097,4.54601945 2.39804,4.54601945 C0.870539029,4.54601945 0.1068,3.8280133 0.1068,2.39197945 Z M0.32632,5.45153945 L4.46976,5.45153945 L4.46976,21.2020995 L0.32632,21.2020995 L0.32632,5.45153945 Z M10.9163307,5.72593945 C11.8858822,5.19543013 12.8920055,4.93017945 13.9347307,4.93017945 C14.9774559,4.93017945 15.8143675,5.21829657 16.4454907,5.79453945 C17.0766138,6.37078233 17.3921707,7.23513369 17.3921707,8.38761945 L17.3921707,21.2020995 L13.1938507,21.2020995 L13.1938507,9.40289945 C13.1938507,8.96385726 12.9560397,8.74433945 12.4804107,8.74433945 C12.0047816,8.74433945 11.565746,8.86324493 11.1632907,9.10105945 L11.1632907,21.2020995 L7.01985069,21.2020995 L7.01985069,5.01249945 L10.9163307,5.01249945 L10.9163307,5.72593945 Z" transform="translate(20 11)"/>
</svg>
