<svg xmlns="http://www.w3.org/2000/svg" width="56" height="43" viewBox="0 0 56 43">
  <g fill="none" fill-rule="evenodd">
    <rect width="52.685" height="39.239" x="1.89" y="2.183" stroke="#1DA1F2" stroke-width="2.744"/>
    <path fill="#1DA1F2" d="M30.75688,27.8391395 C31.3239762,27.8391395 31.845331,27.7110874 32.32096,27.4549795 L32.32096,31.1319395 C31.6989836,31.4246342 30.8849384,31.5709795 29.8788,31.5709795 C28.3238589,31.5709795 27.2171233,31.2051164 26.55856,30.4733795 C25.8999967,29.7416425 25.57072,28.6806397 25.57072,27.2903395 L25.57072,18.6192995 L24.1164,18.6192995 L24.1164,15.1344195 L25.7628,15.1344195 L27.02504,12.3355395 L29.71416,12.3355395 L29.71416,15.1344195 L32.15632,15.1344195 L32.15632,18.6192995 L29.71416,18.6192995 L29.71416,26.8512995 C29.71416,27.5098627 30.0617299,27.8391395 30.75688,27.8391395 Z"/>
  </g>
</svg>
