<svg xmlns="http://www.w3.org/2000/svg" width="57" height="43" viewBox="0 0 57 43">
  <g fill="none" fill-rule="evenodd">
    <rect width="52.685" height="39.239" x="2.271" y="2.183" stroke="#0077B5" stroke-width="2.744"/>
    <path fill="#0077B5" d="M20.1068,13.3919795 C20.1068,11.9559456 20.870539,11.2379395 22.39804,11.2379395 C23.925541,11.2379395 24.68928,11.9559456 24.68928,13.3919795 C24.68928,14.8280133 23.925541,15.5460195 22.39804,15.5460195 C20.870539,15.5460195 20.1068,14.8280133 20.1068,13.3919795 Z M20.32632,16.4515395 L24.46976,16.4515395 L24.46976,32.2020995 L20.32632,32.2020995 L20.32632,16.4515395 Z M30.9163307,16.7259395 C31.8858822,16.1954301 32.8920055,15.9301795 33.9347307,15.9301795 C34.9774559,15.9301795 35.8143675,16.2182966 36.4454907,16.7945395 C37.0766138,17.3707823 37.3921707,18.2351337 37.3921707,19.3876195 L37.3921707,32.2020995 L33.1938507,32.2020995 L33.1938507,20.4028995 C33.1938507,19.9638573 32.9560397,19.7443395 32.4804107,19.7443395 C32.0047816,19.7443395 31.565746,19.8632449 31.1632907,20.1010595 L31.1632907,32.2020995 L27.0198507,32.2020995 L27.0198507,16.0124995 L30.9163307,16.0124995 L30.9163307,16.7259395 Z"/>
  </g>
</svg>
