<svg xmlns="http://www.w3.org/2000/svg" width="56" height="43" viewBox="0 0 56 43">
  <path fill="#FFFFFF" fill-rule="evenodd" d="M6.75688,15.8391395 C7.32397617,15.8391395 7.84533096,15.7110874 8.32096,15.4549795 L8.32096,19.1319395 C7.69898356,19.4246342 6.88493836,19.5709795 5.8788,19.5709795 C4.32385889,19.5709795 3.21712329,19.2051164 2.55856,18.4733795 C1.89999671,17.7416425 1.57072,16.6806397 1.57072,15.2903395 L1.57072,6.61929945 L0.1164,6.61929945 L0.1164,3.13441945 L1.7628,3.13441945 L3.02504,0.335539453 L5.71416,0.335539453 L5.71416,3.13441945 L8.15632,3.13441945 L8.15632,6.61929945 L5.71416,6.61929945 L5.71416,14.8512995 C5.71416,15.5098627 6.06172986,15.8391395 6.75688,15.8391395 Z" transform="translate(24 12)"/>
</svg>
